<?xml version="1.0" standalone="no"?>
<!DOCTYPE svg PUBLIC "-//W3C//DTD SVG 20010904//EN"
 "http://www.w3.org/TR/2001/REC-SVG-20010904/DTD/svg10.dtd">
<svg version="1.0" xmlns="http://www.w3.org/2000/svg"
 width="325.000000pt" height="325.000000pt" viewBox="0 0 325.000000 325.000000"
 preserveAspectRatio="xMidYMid meet">
<metadata>
Created by potrace 1.11, written by Peter Selinger 2001-2013
</metadata>
<g transform="translate(0.000000,325.000000) scale(0.100000,-0.100000)"
fill="#000000" stroke="none">
<path d="M1535 3179 c-22 -10 -35 -19 -30 -19 12 -1 -66 -39 -80 -40 -14 0
-15 -11 -18 -245 -2 -180 -4 -200 -20 -203 -9 -2 -17 -7 -17 -11 0 -7 -42 -20
-68 -21 -4 0 -8 73 -9 163 -3 231 -5 239 -46 219 -12 -6 -40 -18 -62 -27 -22
-8 -61 -25 -86 -38 l-46 -22 0 -317 0 -317 26 -11 c15 -6 40 -22 56 -36 16
-13 59 -41 96 -61 38 -20 66 -40 64 -43 -2 -4 17 -17 43 -30 40 -20 43 -25 25
-28 -24 -4 -25 -6 -27 -57 -1 -16 -7 -39 -13 -50 -6 -11 -10 -35 -9 -53 1 -17
-1 -32 -5 -32 -4 0 -6 -20 -5 -45 1 -25 0 -48 -3 -51 -3 -3 -7 -20 -8 -37 -3
-37 -11 -112 -19 -177 -3 -25 -6 -66 -7 -92 -1 -27 -5 -48 -9 -48 -4 0 -7 -15
-7 -32 0 -18 -3 -53 -6 -78 -3 -25 -7 -61 -9 -80 -2 -19 -5 -41 -5 -47 -1 -9
-23 -13 -75 -13 l-74 0 1 -87 c2 -80 0 -90 -20 -106 -19 -15 -25 -16 -36 -5
-18 19 -48 67 -45 72 2 3 -5 11 -14 18 -9 7 -18 20 -20 28 -2 8 -11 21 -20 28
-17 13 -74 106 -80 132 -2 8 -9 21 -16 28 -7 8 -10 18 -7 23 4 5 2 9 -4 9 -8
0 -55 80 -59 100 0 3 -6 19 -13 35 -7 17 -12 33 -11 38 1 4 -5 7 -13 7 -8 0
-14 3 -13 8 1 4 -6 22 -15 40 -10 17 -15 32 -11 32 4 0 1 6 -5 14 -11 13 -22
46 -23 74 -1 6 -5 12 -10 12 -4 0 -8 5 -8 12 0 6 -13 38 -29 72 -26 55 -41
103 -46 146 -1 8 -7 33 -13 55 -17 63 -24 97 -29 145 -2 25 -7 52 -10 60 -9
23 -10 32 -18 116 -3 43 -8 81 -11 85 -2 4 10 17 27 30 17 12 42 32 56 45 14
13 32 24 39 24 8 0 14 4 14 8 0 4 15 16 33 27 17 10 40 26 50 35 9 9 43 30 75
47 43 22 58 35 59 54 6 65 7 202 2 211 -8 12 -69 1 -69 -13 0 -4 -34 -27 -75
-50 -41 -22 -77 -45 -81 -50 -3 -5 -38 -28 -77 -50 -104 -59 -168 -106 -231
-171 l-56 -58 0 -77 c0 -86 36 -408 47 -426 4 -7 8 -16 8 -22 2 -29 84 -285
99 -310 7 -11 32 -67 55 -125 24 -58 47 -107 51 -110 5 -3 27 -48 49 -100 23
-51 45 -96 49 -99 5 -4 25 -37 46 -76 52 -96 146 -236 162 -242 8 -3 12 -9 9
-13 -3 -5 4 -15 15 -23 11 -7 17 -16 14 -20 -3 -3 13 -30 37 -61 24 -30 57
-73 73 -95 17 -23 34 -41 39 -41 4 0 6 -4 3 -9 -3 -4 7 -19 22 -33 33 -31 62
-66 62 -76 0 -4 16 -18 34 -32 19 -14 32 -28 29 -33 -2 -4 3 -10 11 -13 9 -3
14 -10 11 -15 -3 -4 3 -13 14 -18 22 -12 81 -69 81 -79 0 -4 13 -17 28 -29 55
-44 79 -68 85 -86 4 -9 14 -20 23 -24 19 -7 78 -63 67 -63 -4 0 3 -8 16 -17
44 -35 89 -81 84 -87 -4 -3 13 -6 37 -6 33 0 48 6 66 25 13 14 28 25 34 25 5
0 10 4 10 8 0 5 11 15 25 22 13 7 22 17 19 22 -3 4 0 8 7 8 7 0 9 3 6 6 -6 7
32 46 72 74 12 8 21 18 21 22 0 4 23 30 52 58 28 27 49 50 45 50 -5 0 31 36
86 86 7 6 26 28 42 49 17 21 37 46 45 55 24 26 80 98 80 103 0 3 18 24 40 48
22 24 40 48 40 52 0 4 14 22 30 40 17 18 42 52 57 77 14 25 34 54 44 65 21 24
89 125 89 132 0 3 14 21 30 40 17 18 30 41 30 49 0 8 11 32 25 52 14 20 25 42
25 49 0 7 5 13 11 13 5 0 7 5 4 10 -3 6 -2 10 3 10 5 0 26 39 47 88 22 48 43
90 48 93 5 3 8 9 8 13 -1 3 5 19 13 34 7 15 26 63 41 107 15 44 31 85 36 91
17 21 57 182 86 347 3 15 9 27 13 27 14 0 30 142 30 277 l0 139 -42 45 c-24
24 -67 62 -95 84 -29 21 -53 43 -53 47 0 4 -35 26 -77 48 -106 56 -245 135
-260 149 -32 29 -35 17 -35 -134 1 -104 1 -105 15 -105 13 0 156 -95 167 -110
3 -4 15 -10 27 -14 12 -4 30 -17 40 -29 10 -13 35 -35 56 -51 25 -20 34 -32
28 -40 -5 -6 -11 -56 -14 -111 -4 -109 -8 -133 -32 -221 -9 -33 -18 -70 -21
-84 -12 -66 -29 -120 -36 -120 -4 0 -8 -8 -8 -18 0 -10 -5 -23 -12 -30 -7 -7
-9 -12 -5 -12 3 0 -1 -21 -9 -47 -8 -27 -17 -59 -20 -72 -7 -34 -43 -101 -54
-101 -6 0 -9 -3 -8 -7 3 -15 -14 -63 -23 -63 -5 0 -8 -3 -7 -7 3 -10 -34 -86
-45 -94 -5 -3 -8 -8 -6 -10 1 -2 -9 -22 -23 -44 -14 -22 -37 -62 -51 -89 -14
-26 -37 -61 -51 -77 -14 -16 -25 -32 -25 -35 3 -10 -42 -84 -51 -84 -4 0 -11
-11 -14 -25 -4 -14 -11 -25 -16 -25 -6 0 -10 -7 -10 -15 0 -18 -1 -18 -31 -2
-23 11 -24 17 -23 100 0 48 -3 87 -7 87 -5 0 -6 6 -3 14 6 17 -35 26 -125 26
-59 1 -63 2 -41 13 22 10 26 18 24 52 0 22 -2 45 -4 50 -1 6 -3 26 -5 45 -1
19 -3 37 -5 40 -1 3 -4 25 -5 50 -2 25 -6 65 -9 90 -4 25 -7 64 -8 88 -1 23
-4 42 -7 42 -4 0 -6 19 -5 43 1 23 -2 47 -6 52 -4 6 -6 24 -5 40 1 17 -3 39
-9 50 -10 20 -16 59 -19 128 -1 20 -4 37 -7 37 -3 0 -5 18 -4 40 1 24 -3 40
-10 40 -6 0 -2 6 9 12 11 6 31 21 45 33 14 12 53 38 88 57 34 19 60 37 57 39
-2 3 20 18 49 34 l53 29 0 303 0 304 -72 34 c-86 42 -156 67 -164 60 -3 -3 -5
-91 -6 -195 0 -105 -2 -191 -5 -192 -14 -5 -108 43 -119 61 -4 5 -6 105 -6
220 0 143 -3 211 -10 211 -14 0 -92 40 -80 41 6 0 -8 9 -30 19 -51 24 -109 23
-160 -1z"/>
</g>
</svg>
